<mxfile host="app.diagrams.net" modified="2024-01-31T18:03:27.852Z" agent="Mozilla/5.0 (Windows NT 10.0; Win64; x64) AppleWebKit/537.36 (KHTML, like Gecko) Chrome/120.0.0.0 Safari/537.36 OPR/106.0.0.0" version="23.1.0" etag="utC0Cse_XAagTVnuiWPq" type="github">
  <diagram id="0" name="Page-1">
    <mxGraphModel dx="2033" dy="1118" grid="1" gridSize="10" guides="1" tooltips="1" connect="1" arrows="1" fold="1" page="1" pageScale="1" pageWidth="850" pageHeight="1100" math="0" shadow="0">
      <root>
        <mxCell id="0" />
        <mxCell id="1" parent="0" />
        <mxCell id="2" value="Bok" style="rounded=1;whiteSpace=wrap;html=1;fillColor=#dae8fc;" parent="1" vertex="1">
          <mxGeometry x="20" y="100" width="160" height="100" as="geometry" />
        </mxCell>
        <mxCell id="3" value="ISBN (PK)" style="text;html=1;strokeColor=none;fillColor=none;" parent="2" vertex="1">
          <mxGeometry y="20" width="120" height="20" as="geometry" />
        </mxCell>
        <mxCell id="4" value="Titel" style="text;html=1;strokeColor=none;fillColor=none;" parent="2" vertex="1">
          <mxGeometry y="40" width="120" height="20" as="geometry" />
        </mxCell>
        <mxCell id="5" value="Pris" style="text;html=1;strokeColor=none;fillColor=none;" parent="2" vertex="1">
          <mxGeometry y="60" width="120" height="20" as="geometry" />
        </mxCell>
        <mxCell id="F-OgJzpUuokk81X1KCax-18" style="edgeStyle=orthogonalEdgeStyle;rounded=0;orthogonalLoop=1;jettySize=auto;html=1;exitX=0.5;exitY=1;exitDx=0;exitDy=0;" edge="1" parent="1" source="6">
          <mxGeometry relative="1" as="geometry">
            <mxPoint x="500" y="180" as="targetPoint" />
          </mxGeometry>
        </mxCell>
        <mxCell id="F-OgJzpUuokk81X1KCax-19" style="edgeStyle=orthogonalEdgeStyle;rounded=0;orthogonalLoop=1;jettySize=auto;html=1;" edge="1" parent="1" source="6" target="2">
          <mxGeometry relative="1" as="geometry" />
        </mxCell>
        <mxCell id="F-OgJzpUuokk81X1KCax-22" value="M" style="edgeLabel;html=1;align=center;verticalAlign=middle;resizable=0;points=[];" vertex="1" connectable="0" parent="F-OgJzpUuokk81X1KCax-19">
          <mxGeometry x="0.5366" y="-9" relative="1" as="geometry">
            <mxPoint as="offset" />
          </mxGeometry>
        </mxCell>
        <mxCell id="6" value="Författare" style="rounded=1;whiteSpace=wrap;html=1;fillColor=#d5e8d4;" parent="1" vertex="1">
          <mxGeometry x="590" y="90" width="160" height="120" as="geometry" />
        </mxCell>
        <mxCell id="7" value="FörfattareID (PK)" style="text;html=1;strokeColor=none;fillColor=none;" parent="6" vertex="1">
          <mxGeometry y="20" width="120" height="20" as="geometry" />
        </mxCell>
        <mxCell id="8" value="Namn" style="text;html=1;strokeColor=none;fillColor=none;" parent="6" vertex="1">
          <mxGeometry y="40" width="120" height="20" as="geometry" />
        </mxCell>
        <mxCell id="9" value="Nationalitet" style="text;html=1;strokeColor=none;fillColor=none;" parent="6" vertex="1">
          <mxGeometry y="60" width="120" height="20" as="geometry" />
        </mxCell>
        <mxCell id="10" value="Födelsedatum" style="text;html=1;strokeColor=none;fillColor=none;" parent="6" vertex="1">
          <mxGeometry y="80" width="120" height="20" as="geometry" />
        </mxCell>
        <mxCell id="F-OgJzpUuokk81X1KCax-24" style="edgeStyle=orthogonalEdgeStyle;rounded=0;orthogonalLoop=1;jettySize=auto;html=1;entryX=0;entryY=1;entryDx=0;entryDy=0;" edge="1" parent="1" source="11" target="15">
          <mxGeometry relative="1" as="geometry" />
        </mxCell>
        <mxCell id="11" value="Kund" style="rounded=1;whiteSpace=wrap;html=1;fillColor=#f8cecc;" parent="1" vertex="1">
          <mxGeometry x="10" y="440" width="160" height="100" as="geometry" />
        </mxCell>
        <mxCell id="12" value="Kundnummer (PK)" style="text;html=1;strokeColor=none;fillColor=none;" parent="11" vertex="1">
          <mxGeometry y="20" width="120" height="20" as="geometry" />
        </mxCell>
        <mxCell id="13" value="Namn" style="text;html=1;strokeColor=none;fillColor=none;" parent="11" vertex="1">
          <mxGeometry y="40" width="120" height="20" as="geometry" />
        </mxCell>
        <mxCell id="14" value="Kontaktuppgifter" style="text;html=1;strokeColor=none;fillColor=none;" parent="11" vertex="1">
          <mxGeometry y="60" width="120" height="20" as="geometry" />
        </mxCell>
        <mxCell id="15" value="Köp" style="rounded=1;whiteSpace=wrap;html=1;fillColor=#fff2cc;" parent="1" vertex="1">
          <mxGeometry x="520" y="430" width="160" height="100" as="geometry" />
        </mxCell>
        <mxCell id="16" value="KöpID (PK)" style="text;html=1;strokeColor=none;fillColor=none;" parent="15" vertex="1">
          <mxGeometry y="20" width="120" height="20" as="geometry" />
        </mxCell>
        <mxCell id="17" value="Köpdatum" style="text;html=1;strokeColor=none;fillColor=none;" parent="15" vertex="1">
          <mxGeometry y="40" width="120" height="20" as="geometry" />
        </mxCell>
        <mxCell id="18" value="TotaltPris" style="text;html=1;strokeColor=none;fillColor=none;" parent="15" vertex="1">
          <mxGeometry y="60" width="120" height="20" as="geometry" />
        </mxCell>
        <mxCell id="F-OgJzpUuokk81X1KCax-23" value="1" style="text;html=1;align=center;verticalAlign=middle;resizable=0;points=[];autosize=1;strokeColor=none;fillColor=none;" vertex="1" parent="1">
          <mxGeometry x="505" y="128" width="30" height="30" as="geometry" />
        </mxCell>
        <mxCell id="F-OgJzpUuokk81X1KCax-25" value="bok köp" style="rounded=1;whiteSpace=wrap;html=1;fillColor=#6a00ff;strokeColor=#3700CC;fontColor=#ffffff;" vertex="1" parent="1">
          <mxGeometry x="300" y="350" width="120" height="60" as="geometry" />
        </mxCell>
        <mxCell id="F-OgJzpUuokk81X1KCax-26" style="edgeStyle=orthogonalEdgeStyle;rounded=0;orthogonalLoop=1;jettySize=auto;html=1;entryX=0.45;entryY=0.983;entryDx=0;entryDy=0;entryPerimeter=0;" edge="1" parent="1" source="18" target="F-OgJzpUuokk81X1KCax-25">
          <mxGeometry relative="1" as="geometry" />
        </mxCell>
        <mxCell id="F-OgJzpUuokk81X1KCax-27" style="edgeStyle=orthogonalEdgeStyle;rounded=0;orthogonalLoop=1;jettySize=auto;html=1;" edge="1" parent="1" source="5" target="F-OgJzpUuokk81X1KCax-25">
          <mxGeometry relative="1" as="geometry" />
        </mxCell>
      </root>
    </mxGraphModel>
  </diagram>
</mxfile>
